<svg xmlns="http://www.w3.org/2000/svg" version="1.1" xmlns:xlink="http://www.w3.org/1999/xlink" xmlns:svgjs="http://svgjs.dev/svgjs" width="1000" height="1000" viewBox="0 0 1000 1000"><rect width="1000" height="1000" fill="#ffffff"></rect><g transform="matrix(0.7,0,0,0.7,149.57576320202264,431.60539534160364)"><svg viewBox="0 0 396 78" data-background-color="#ffffff" preserveAspectRatio="xMidYMid meet" height="196" width="1000" xmlns="http://www.w3.org/2000/svg" xmlns:xlink="http://www.w3.org/1999/xlink"><g id="tight-bounds" transform="matrix(1,0,0,1,0.23999681714147414,-0.11676624028135052)"><svg viewBox="0 0 395.5199999999999 78.23353571003172" height="78.23353571003172" width="395.5199999999999"><g><svg viewBox="0 0 417.1774377696307 82.51735936278808" height="78.23353571003172" width="395.5199999999999"><g><svg viewBox="0 0 417.1774377696307 82.51735936278808" height="82.51735936278808" width="417.1774377696307"><g id="textblocktransform"><svg viewBox="0 0 417.1774377696307 82.51735936278808" height="82.51735936278808" width="417.1774377696307" id="textblock"><g><svg viewBox="0 0 417.1774377696307 58.571600000000004" height="58.571600000000004" width="417.1774377696307"><g><svg><g></g><g></g></svg></g><g><svg><g><svg></svg></g><g></g></svg></g><g id="text-0"><svg viewBox="0 0 417.1774377696307 58.571600000000004" height="58.571600000000004" width="417.1774377696307"><g transform="matrix(1,0,0,1,0,10.8858)"><svg width="134.5" viewBox="2.299999952316284 -35.599998474121094 134.489990234375 36.19999694824219" height="36.2" data-palette-color="#50a060"><path d="M19.15 0.6L19.15 0.6Q13.95 0.6 10.18-1.68 6.4-3.95 4.35-8.03 2.3-12.1 2.3-17.45L2.3-17.45Q2.3-22.85 4.35-26.93 6.4-31 10.18-33.3 13.95-35.6 19.15-35.6L19.15-35.6Q25.3-35.6 29.2-32.6 33.1-29.6 34.15-24.2L34.15-24.2 28.25-24.2Q27.55-27.25 25.25-29.05 22.95-30.85 19.1-30.85L19.1-30.85Q13.85-30.85 10.8-27.28 7.75-23.7 7.75-17.45L7.75-17.45Q7.75-11.25 10.8-7.7 13.85-4.15 19.1-4.15L19.1-4.15Q22.95-4.15 25.25-5.85 27.55-7.55 28.25-10.5L28.25-10.5 34.15-10.5Q33.1-5.3 29.2-2.35 25.3 0.6 19.15 0.6ZM56.15 0.6L56.15 0.6Q50.95 0.6 47.05-1.7 43.15-4 40.95-8.08 38.75-12.15 38.75-17.5L38.75-17.5Q38.75-22.85 40.95-26.93 43.15-31 47.05-33.3 50.95-35.6 56.15-35.6L56.15-35.6Q61.35-35.6 65.25-33.3 69.15-31 71.32-26.93 73.5-22.85 73.5-17.5L73.5-17.5Q73.5-12.15 71.32-8.08 69.15-4 65.25-1.7 61.35 0.6 56.15 0.6ZM56.15-4.15L56.15-4.15Q59.75-4.15 62.42-5.75 65.1-7.35 66.6-10.35 68.1-13.35 68.1-17.5L68.1-17.5Q68.1-21.65 66.6-24.65 65.1-27.65 62.42-29.25 59.75-30.85 56.15-30.85L56.15-30.85Q52.55-30.85 49.85-29.25 47.15-27.65 45.67-24.65 44.2-21.65 44.2-17.5L44.2-17.5Q44.2-13.35 45.67-10.35 47.15-7.35 49.85-5.75 52.55-4.15 56.15-4.15ZM90.75 0L79.4 0 79.4-35 90.75-35Q96.9-35 100.87-32.85 104.85-30.7 106.77-26.78 108.7-22.85 108.7-17.45L108.7-17.45Q108.7-12.1 106.77-8.18 104.85-4.25 100.87-2.13 96.9 0 90.75 0L90.75 0ZM84.7-30.55L84.7-4.5 90.55-4.5Q95.3-4.5 98.07-6.05 100.85-7.6 102.07-10.5 103.3-13.4 103.3-17.45L103.3-17.45Q103.3-21.5 102.07-24.45 100.85-27.4 98.07-28.98 95.3-30.55 90.55-30.55L90.55-30.55 84.7-30.55ZM136.79 0L114.54 0 114.54-35 136.79-35 136.79-30.7 119.84-30.7 119.84-19.8 135.29-19.8 135.29-15.6 119.84-15.6 119.84-4.3 136.79-4.3 136.79 0Z" opacity="1" transform="matrix(1,0,0,1,0,0)" fill="#50a060" class="undefined-p-0"></path></svg></g><g><svg xmlns="http://www.w3.org/2000/svg" xmlns:xlink="http://www.w3.org/1999/xlink" version="1.1" x="148.3284" y="0" viewBox="0 18.003889083862305 96 59.99610900878906" enable-background="new 0 0 96 96" xml:space="preserve" height="58.571600000000004" width="93.72063776963077" class="icon-s-0" data-fill-palette-color="accent" id="s-0"><path d="M28.416 76.572c-1.024 0-2.048-0.393-2.832-1.172L1.172 50.844C0.42 50.092 0 49.068 0 48c0-1.068 0.42-2.088 1.176-2.848l24.412-24.548c1.56-1.568 4.092-1.576 5.656 0.004 1.56 1.58 1.56 4.12-0.004 5.696L9.664 48l21.58 21.704c1.56 1.571 1.56 4.116 0 5.688C30.464 76.18 29.432 76.572 28.416 76.572L28.416 76.572z" fill="#000000" data-fill-palette-color="accent"></path><path d="M67.588 76.572c-1.023 0-2.052-0.393-2.828-1.18-1.568-1.572-1.568-4.117 0-5.697L86.344 48 64.76 26.304c-1.568-1.58-1.568-4.12 0-5.696 1.568-1.58 4.088-1.576 5.656-0.008l24.412 24.552C95.58 45.9 96 46.928 96 48c0 1.068-0.42 2.088-1.172 2.844L70.416 75.393C69.641 76.18 68.611 76.572 67.588 76.572L67.588 76.572z" fill="#000000" data-fill-palette-color="accent"></path><path d="M38.348 78c-0.476 0-0.964-0.084-1.436-0.264-2.06-0.805-3.092-3.133-2.296-5.213l19.868-51.947c0.795-2.076 3.107-3.096 5.168-2.304 2.06 0.796 3.088 3.124 2.296 5.204L42.072 75.424C41.476 77.016 39.952 78 38.348 78z" fill="#000000" data-fill-palette-color="accent"></path></svg></g><g transform="matrix(1,0,0,1,255.87743776963077,11.485800000000003)"><svg width="161.3" viewBox="2.25 -35 161.2899932861328 35" height="35" data-palette-color="#50a060"><path d="M25.25 0L2.25 0 2.25-4.1 18.95-30.5 2.45-30.5 2.45-35 25.1-35 25.1-30.9 8.35-4.5 25.25-4.5 25.25 0ZM53.3 0L31.05 0 31.05-35 53.3-35 53.3-30.7 36.35-30.7 36.35-19.8 51.8-19.8 51.8-15.6 36.35-15.6 36.35-4.3 53.3-4.3 53.3 0ZM64.89 0L59.59 0 59.59-35 64.89-35 82.45-8.65 82.45-35 87.75-35 87.75 0 82.45 0 64.89-26.35 64.89 0ZM100.14 0L94.84 0 94.84-35 100.14-35 100.14 0ZM120.74 0L115.44 0 115.44-30.7 105.09-30.7 105.09-35 131.04-35 131.04-30.7 120.74-30.7 120.74 0ZM141.29 0L135.99 0 135.99-35 141.29-35 141.29-20 158.24-20 158.24-35 163.54-35 163.54 0 158.24 0 158.24-15.65 141.29-15.65 141.29 0Z" opacity="1" transform="matrix(1,0,0,1,0,0)" fill="#50a060" class="undefined-p-1"></path></svg></g></svg></g></svg></g><g transform="matrix(1,0,0,1,79.68089061399948,66.83426)"><svg viewBox="0 0 257.81565654163177 15.68309936278808" height="15.68309936278808" width="257.81565654163177"><g transform="matrix(1,0,0,1,0,0)"><svg width="257.81565654163177" viewBox="2.3499999046325684 -36 782.4200439453125 47.599998474121094" height="15.68309936278808" data-palette-color="#50a060"><path d="M19.05 0.6L19.05 0.6Q13.9 0.6 10.18-1.68 6.45-3.95 4.4-8.03 2.35-12.1 2.35-17.5L2.35-17.5Q2.35-22.85 4.4-26.93 6.45-31 10.18-33.3 13.9-35.6 19.05-35.6L19.05-35.6Q25.05-35.6 28.83-32.73 32.6-29.85 33.65-24.7L33.65-24.7 29-24.7Q28.2-27.95 25.73-29.93 23.25-31.9 19.05-31.9L19.05-31.9Q15.3-31.9 12.5-30.18 9.7-28.45 8.18-25.23 6.65-22 6.65-17.5L6.65-17.5Q6.65-13 8.18-9.78 9.7-6.55 12.5-4.83 15.3-3.1 19.05-3.1L19.05-3.1Q23.25-3.1 25.73-5.03 28.2-6.95 29-10.15L29-10.15 33.65-10.15Q32.6-5.1 28.83-2.25 25.05 0.6 19.05 0.6ZM50.75 0.6L50.75 0.6Q47.25 0.6 44.45-1 41.65-2.6 40.02-5.53 38.4-8.45 38.4-12.4L38.4-12.4Q38.4-16.35 40.05-19.28 41.7-22.2 44.52-23.8 47.35-25.4 50.85-25.4L50.85-25.4Q54.35-25.4 57.15-23.8 59.95-22.2 61.57-19.28 63.2-16.35 63.2-12.4L63.2-12.4Q63.2-8.45 61.55-5.53 59.9-2.6 57.07-1 54.25 0.6 50.75 0.6ZM50.75-3L50.75-3Q52.9-3 54.75-4.05 56.6-5.1 57.75-7.2 58.9-9.3 58.9-12.4L58.9-12.4Q58.9-15.5 57.77-17.6 56.65-19.7 54.8-20.75 52.95-21.8 50.85-21.8L50.85-21.8Q48.7-21.8 46.85-20.75 45-19.7 43.85-17.6 42.7-15.5 42.7-12.4L42.7-12.4Q42.7-9.3 43.85-7.2 45-5.1 46.82-4.05 48.65-3 50.75-3ZM73.25 0L69.05 0 69.05-24.8 72.84-24.8 73.09-20.35Q74.3-22.7 76.55-24.05 78.8-25.4 81.64-25.4L81.64-25.4Q86.05-25.4 88.67-22.73 91.3-20.05 91.3-14.5L91.3-14.5 91.3 0 87.09 0 87.09-14.05Q87.09-21.8 80.69-21.8L80.69-21.8Q77.5-21.8 75.37-19.48 73.25-17.15 73.25-12.85L73.25-12.85 73.25 0ZM101.84 0L97.64 0 97.64-24.8 101.44-24.8 101.69-20.35Q102.89-22.7 105.14-24.05 107.39-25.4 110.24-25.4L110.24-25.4Q114.64-25.4 117.27-22.73 119.89-20.05 119.89-14.5L119.89-14.5 119.89 0 115.69 0 115.69-14.05Q115.69-21.8 109.29-21.8L109.29-21.8Q106.09-21.8 103.97-19.48 101.84-17.15 101.84-12.85L101.84-12.85 101.84 0ZM137.39 0.6L137.39 0.6Q133.84 0.6 131.09-1.03 128.34-2.65 126.76-5.55 125.19-8.45 125.19-12.4L125.19-12.4Q125.19-16.3 126.74-19.23 128.29-22.15 131.06-23.78 133.84-25.4 137.49-25.4L137.49-25.4Q141.09-25.4 143.72-23.78 146.34-22.15 147.74-19.5 149.14-16.85 149.14-13.8L149.14-13.8Q149.14-13.25 149.12-12.7 149.09-12.15 149.09-11.45L149.09-11.45 129.34-11.45Q129.49-8.6 130.66-6.73 131.84-4.85 133.61-3.9 135.39-2.95 137.39-2.95L137.39-2.95Q139.99-2.95 141.74-4.15 143.49-5.35 144.29-7.4L144.29-7.4 148.44-7.4Q147.44-3.95 144.62-1.68 141.79 0.6 137.39 0.6ZM137.39-21.85L137.39-21.85Q134.39-21.85 132.06-20.03 129.74-18.2 129.39-14.7L129.39-14.7 144.99-14.7Q144.84-18.05 142.69-19.95 140.54-21.85 137.39-21.85ZM166.09 0.6L166.09 0.6Q162.54 0.6 159.71-1.03 156.89-2.65 155.26-5.58 153.64-8.5 153.64-12.4L153.64-12.4Q153.64-16.3 155.26-19.23 156.89-22.15 159.71-23.78 162.54-25.4 166.09-25.4L166.09-25.4Q170.49-25.4 173.51-23.1 176.54-20.8 177.34-16.95L177.34-16.95 173.04-16.95Q172.54-19.25 170.59-20.53 168.64-21.8 166.04-21.8L166.04-21.8Q163.94-21.8 162.09-20.75 160.24-19.7 159.09-17.6 157.94-15.5 157.94-12.4L157.94-12.4Q157.94-9.3 159.09-7.2 160.24-5.1 162.09-4.03 163.94-2.95 166.04-2.95L166.04-2.95Q168.64-2.95 170.59-4.23 172.54-5.5 173.04-7.85L173.04-7.85 177.34-7.85Q176.59-4.1 173.54-1.75 170.49 0.6 166.09 0.6ZM196.09 0L192.29 0Q188.89 0 186.94-1.65 184.99-3.3 184.99-7.6L184.99-7.6 184.99-21.25 180.69-21.25 180.69-24.8 184.99-24.8 185.54-30.75 189.19-30.75 189.19-24.8 196.49-24.8 196.49-21.25 189.19-21.25 189.19-7.6Q189.19-5.25 190.14-4.42 191.09-3.6 193.49-3.6L193.49-3.6 196.09-3.6 196.09 0ZM203.98 5.95L201.08 5.95 203.98-5.1 208.33-5.1 203.98 5.95ZM230.78 0L226.58 0 226.58-36 230.78-36 230.78 0ZM248.83 0.6L248.83 0.6Q245.28 0.6 242.53-1.03 239.78-2.65 238.2-5.55 236.63-8.45 236.63-12.4L236.63-12.4Q236.63-16.3 238.18-19.23 239.73-22.15 242.5-23.78 245.28-25.4 248.93-25.4L248.93-25.4Q252.53-25.4 255.15-23.78 257.78-22.15 259.18-19.5 260.58-16.85 260.58-13.8L260.58-13.8Q260.58-13.25 260.55-12.7 260.53-12.15 260.53-11.45L260.53-11.45 240.78-11.45Q240.93-8.6 242.1-6.73 243.28-4.85 245.05-3.9 246.83-2.95 248.83-2.95L248.83-2.95Q251.43-2.95 253.18-4.15 254.93-5.35 255.73-7.4L255.73-7.4 259.88-7.4Q258.88-3.95 256.05-1.68 253.23 0.6 248.83 0.6ZM248.83-21.85L248.83-21.85Q245.83-21.85 243.5-20.03 241.18-18.2 240.83-14.7L240.83-14.7 256.43-14.7Q256.28-18.05 254.13-19.95 251.98-21.85 248.83-21.85ZM274.37 0.6L274.37 0.6Q271.27 0.6 269.22-0.45 267.17-1.5 266.17-3.25 265.17-5 265.17-7.05L265.17-7.05Q265.17-10.85 268.07-12.9 270.97-14.95 275.97-14.95L275.97-14.95 282.67-14.95 282.67-15.25Q282.67-18.5 280.97-20.18 279.27-21.85 276.42-21.85L276.42-21.85Q273.97-21.85 272.2-20.63 270.42-19.4 269.97-17.05L269.97-17.05 265.67-17.05Q265.92-19.75 267.5-21.6 269.07-23.45 271.42-24.43 273.77-25.4 276.42-25.4L276.42-25.4Q281.62-25.4 284.25-22.63 286.87-19.85 286.87-15.25L286.87-15.25 286.87 0 283.12 0 282.87-4.45Q281.82-2.35 279.8-0.88 277.77 0.6 274.37 0.6ZM275.02-2.95L275.02-2.95Q277.42-2.95 279.15-4.2 280.87-5.45 281.77-7.45 282.67-9.45 282.67-11.65L282.67-11.65 282.67-11.7 276.32-11.7Q272.62-11.7 271.1-10.43 269.57-9.15 269.57-7.25L269.57-7.25Q269.57-5.3 271-4.13 272.42-2.95 275.02-2.95ZM297.37 0L293.17 0 293.17-24.8 296.97-24.8 297.32-20.05Q298.47-22.5 300.82-23.95 303.17-25.4 306.62-25.4L306.62-25.4 306.62-21 305.47-21Q303.27-21 301.42-20.23 299.57-19.45 298.47-17.6 297.37-15.75 297.37-12.5L297.37-12.5 297.37 0ZM315.52 0L311.32 0 311.32-24.8 315.12-24.8 315.37-20.35Q316.57-22.7 318.82-24.05 321.07-25.4 323.92-25.4L323.92-25.4Q328.32-25.4 330.94-22.73 333.57-20.05 333.57-14.5L333.57-14.5 333.57 0 329.37 0 329.37-14.05Q329.37-21.8 322.97-21.8L322.97-21.8Q319.77-21.8 317.64-19.48 315.52-17.15 315.52-12.85L315.52-12.85 315.52 0ZM339.47 5.95L336.57 5.95 339.47-5.1 343.82-5.1 339.47 5.95ZM370.31 0.6L370.31 0.6Q367.21 0.6 365.16-0.45 363.11-1.5 362.11-3.25 361.11-5 361.11-7.05L361.11-7.05Q361.11-10.85 364.01-12.9 366.91-14.95 371.91-14.95L371.91-14.95 378.61-14.95 378.61-15.25Q378.61-18.5 376.91-20.18 375.21-21.85 372.36-21.85L372.36-21.85Q369.91-21.85 368.13-20.63 366.36-19.4 365.91-17.05L365.91-17.05 361.61-17.05Q361.86-19.75 363.44-21.6 365.01-23.45 367.36-24.43 369.71-25.4 372.36-25.4L372.36-25.4Q377.56-25.4 380.19-22.63 382.81-19.85 382.81-15.25L382.81-15.25 382.81 0 379.06 0 378.81-4.45Q377.76-2.35 375.74-0.88 373.71 0.6 370.31 0.6ZM370.96-2.95L370.96-2.95Q373.36-2.95 375.09-4.2 376.81-5.45 377.71-7.45 378.61-9.45 378.61-11.65L378.61-11.65 378.61-11.7 372.26-11.7Q368.56-11.7 367.04-10.43 365.51-9.15 365.51-7.25L365.51-7.25Q365.51-5.3 366.94-4.13 368.36-2.95 370.96-2.95ZM393.31 0L389.11 0 389.11-24.8 392.91-24.8 393.16-20.35Q394.36-22.7 396.61-24.05 398.86-25.4 401.71-25.4L401.71-25.4Q406.11-25.4 408.73-22.73 411.36-20.05 411.36-14.5L411.36-14.5 411.36 0 407.16 0 407.16-14.05Q407.16-21.8 400.76-21.8L400.76-21.8Q397.56-21.8 395.43-19.48 393.31-17.15 393.31-12.85L393.31-12.85 393.31 0ZM428.96 0.6L428.96 0.6Q425.26 0.6 422.48-1.1 419.71-2.8 418.18-5.75 416.66-8.7 416.66-12.45L416.66-12.45Q416.66-16.2 418.21-19.13 419.76-22.05 422.51-23.73 425.26-25.4 429.01-25.4L429.01-25.4Q432.06-25.4 434.41-24.15 436.76-22.9 438.06-20.65L438.06-20.65 438.06-36 442.26-36 442.26 0 438.46 0 438.06-4.1Q436.86-2.3 434.61-0.85 432.36 0.6 428.96 0.6ZM429.41-3.05L429.41-3.05Q431.91-3.05 433.83-4.23 435.76-5.4 436.83-7.5 437.91-9.6 437.91-12.4L437.91-12.4Q437.91-15.2 436.83-17.3 435.76-19.4 433.83-20.58 431.91-21.75 429.41-21.75L429.41-21.75Q426.96-21.75 425.03-20.58 423.11-19.4 422.03-17.3 420.96-15.2 420.96-12.4L420.96-12.4Q420.96-9.6 422.03-7.5 423.11-5.4 425.03-4.23 426.96-3.05 429.41-3.05ZM473.75 0.6L473.75 0.6Q470.2 0.6 467.38-1.03 464.55-2.65 462.93-5.58 461.3-8.5 461.3-12.4L461.3-12.4Q461.3-16.3 462.93-19.23 464.55-22.15 467.38-23.78 470.2-25.4 473.75-25.4L473.75-25.4Q478.15-25.4 481.18-23.1 484.2-20.8 485-16.95L485-16.95 480.7-16.95Q480.2-19.25 478.25-20.53 476.3-21.8 473.7-21.8L473.7-21.8Q471.6-21.8 469.75-20.75 467.9-19.7 466.75-17.6 465.6-15.5 465.6-12.4L465.6-12.4Q465.6-9.3 466.75-7.2 467.9-5.1 469.75-4.03 471.6-2.95 473.7-2.95L473.7-2.95Q476.3-2.95 478.25-4.23 480.2-5.5 480.7-7.85L480.7-7.85 485-7.85Q484.25-4.1 481.2-1.75 478.15 0.6 473.75 0.6ZM502.15 0.6L502.15 0.6Q498.65 0.6 495.85-1 493.05-2.6 491.42-5.53 489.8-8.45 489.8-12.4L489.8-12.4Q489.8-16.35 491.45-19.28 493.1-22.2 495.92-23.8 498.75-25.4 502.25-25.4L502.25-25.4Q505.75-25.4 508.55-23.8 511.35-22.2 512.97-19.28 514.6-16.35 514.6-12.4L514.6-12.4Q514.6-8.45 512.95-5.53 511.3-2.6 508.47-1 505.65 0.6 502.15 0.6ZM502.15-3L502.15-3Q504.3-3 506.15-4.05 508-5.1 509.15-7.2 510.3-9.3 510.3-12.4L510.3-12.4Q510.3-15.5 509.17-17.6 508.05-19.7 506.2-20.75 504.35-21.8 502.25-21.8L502.25-21.8Q500.1-21.8 498.25-20.75 496.4-19.7 495.25-17.6 494.1-15.5 494.1-12.4L494.1-12.4Q494.1-9.3 495.25-7.2 496.4-5.1 498.22-4.05 500.05-3 502.15-3ZM531.7 0.6L531.7 0.6Q528 0.6 525.22-1.1 522.45-2.8 520.92-5.75 519.39-8.7 519.39-12.45L519.39-12.45Q519.39-16.2 520.95-19.13 522.5-22.05 525.25-23.73 528-25.4 531.75-25.4L531.75-25.4Q534.79-25.4 537.14-24.15 539.5-22.9 540.79-20.65L540.79-20.65 540.79-36 545-36 545 0 541.2 0 540.79-4.1Q539.6-2.3 537.35-0.85 535.1 0.6 531.7 0.6ZM532.14-3.05L532.14-3.05Q534.64-3.05 536.57-4.23 538.5-5.4 539.57-7.5 540.64-9.6 540.64-12.4L540.64-12.4Q540.64-15.2 539.57-17.3 538.5-19.4 536.57-20.58 534.64-21.75 532.14-21.75L532.14-21.75Q529.7-21.75 527.77-20.58 525.85-19.4 524.77-17.3 523.7-15.2 523.7-12.4L523.7-12.4Q523.7-9.6 524.77-7.5 525.85-5.4 527.77-4.23 529.7-3.05 532.14-3.05ZM562.99 0.6L562.99 0.6Q559.44 0.6 556.69-1.03 553.94-2.65 552.37-5.55 550.79-8.45 550.79-12.4L550.79-12.4Q550.79-16.3 552.34-19.23 553.89-22.15 556.67-23.78 559.44-25.4 563.09-25.4L563.09-25.4Q566.69-25.4 569.32-23.78 571.94-22.15 573.34-19.5 574.74-16.85 574.74-13.8L574.74-13.8Q574.74-13.25 574.72-12.7 574.69-12.15 574.69-11.45L574.69-11.45 554.94-11.45Q555.09-8.6 556.27-6.73 557.44-4.85 559.22-3.9 560.99-2.95 562.99-2.95L562.99-2.95Q565.59-2.95 567.34-4.15 569.09-5.35 569.89-7.4L569.89-7.4 574.04-7.4Q573.04-3.95 570.22-1.68 567.39 0.6 562.99 0.6ZM562.99-21.85L562.99-21.85Q559.99-21.85 557.67-20.03 555.34-18.2 554.99-14.7L554.99-14.7 570.59-14.7Q570.44-18.05 568.29-19.95 566.14-21.85 562.99-21.85ZM607.14 0L603.34 0Q599.94 0 597.99-1.65 596.04-3.3 596.04-7.6L596.04-7.6 596.04-21.25 591.74-21.25 591.74-24.8 596.04-24.8 596.59-30.75 600.24-30.75 600.24-24.8 607.54-24.8 607.54-21.25 600.24-21.25 600.24-7.6Q600.24-5.25 601.19-4.42 602.14-3.6 604.54-3.6L604.54-3.6 607.14-3.6 607.14 0ZM623.48 0.6L623.48 0.6Q619.98 0.6 617.18-1 614.38-2.6 612.76-5.53 611.13-8.45 611.13-12.4L611.13-12.4Q611.13-16.35 612.78-19.28 614.43-22.2 617.26-23.8 620.08-25.4 623.58-25.4L623.58-25.4Q627.08-25.4 629.88-23.8 632.68-22.2 634.31-19.28 635.93-16.35 635.93-12.4L635.93-12.4Q635.93-8.45 634.28-5.53 632.63-2.6 629.81-1 626.98 0.6 623.48 0.6ZM623.48-3L623.48-3Q625.63-3 627.48-4.05 629.33-5.1 630.48-7.2 631.63-9.3 631.63-12.4L631.63-12.4Q631.63-15.5 630.51-17.6 629.38-19.7 627.53-20.75 625.68-21.8 623.58-21.8L623.58-21.8Q621.43-21.8 619.58-20.75 617.73-19.7 616.58-17.6 615.43-15.5 615.43-12.4L615.43-12.4Q615.43-9.3 616.58-7.2 617.73-5.1 619.56-4.05 621.38-3 623.48-3ZM650.53-7.8L650.53-7.8Q648.43-7.8 646.68-8.35L646.68-8.35 644.18-6Q644.73-5.6 645.56-5.33 646.38-5.05 647.93-4.83 649.48-4.6 652.28-4.35L652.28-4.35Q657.28-4 659.43-2.05 661.58-0.1 661.58 3.05L661.58 3.05Q661.58 5.2 660.41 7.15 659.23 9.1 656.81 10.35 654.38 11.6 650.58 11.6L650.58 11.6Q647.23 11.6 644.63 10.73 642.03 9.85 640.58 8.08 639.13 6.3 639.13 3.6L639.13 3.6Q639.13 2.2 639.88 0.58 640.63-1.05 642.68-2.5L642.68-2.5Q641.58-2.95 640.81-3.48 640.03-4 639.38-4.65L639.38-4.65 639.38-5.8 643.63-10Q640.68-12.5 640.68-16.6L640.68-16.6Q640.68-19.05 641.83-21.05 642.98-23.05 645.18-24.23 647.38-25.4 650.53-25.4L650.53-25.4Q652.68-25.4 654.43-24.8L654.43-24.8 663.58-24.8 663.58-21.65 658.93-21.45Q660.38-19.35 660.38-16.6L660.38-16.6Q660.38-14.15 659.21-12.15 658.03-10.15 655.86-8.97 653.68-7.8 650.53-7.8ZM650.53-11.25L650.53-11.25Q653.18-11.25 654.76-12.63 656.33-14 656.33-16.6L656.33-16.6Q656.33-19.15 654.76-20.53 653.18-21.9 650.53-21.9L650.53-21.9Q647.83-21.9 646.26-20.53 644.68-19.15 644.68-16.6L644.68-16.6Q644.68-14 646.26-12.63 647.83-11.25 650.53-11.25ZM643.23 3.2L643.23 3.2Q643.23 5.7 645.33 6.93 647.43 8.15 650.58 8.15L650.58 8.15Q653.68 8.15 655.56 6.8 657.43 5.45 657.43 3.2L657.43 3.2Q657.43 1.6 656.13 0.43 654.83-0.75 651.33-0.95L651.33-0.95Q648.58-1.15 646.58-1.45L646.58-1.45Q644.53-0.35 643.88 0.93 643.23 2.2 643.23 3.2ZM678.48 0.6L678.48 0.6Q674.93 0.6 672.18-1.03 669.43-2.65 667.85-5.55 666.28-8.45 666.28-12.4L666.28-12.4Q666.28-16.3 667.83-19.23 669.38-22.15 672.15-23.78 674.93-25.4 678.58-25.4L678.58-25.4Q682.18-25.4 684.8-23.78 687.43-22.15 688.83-19.5 690.23-16.85 690.23-13.8L690.23-13.8Q690.23-13.25 690.2-12.7 690.18-12.15 690.18-11.45L690.18-11.45 670.43-11.45Q670.58-8.6 671.75-6.73 672.93-4.85 674.7-3.9 676.48-2.95 678.48-2.95L678.48-2.95Q681.08-2.95 682.83-4.15 684.58-5.35 685.38-7.4L685.38-7.4 689.53-7.4Q688.53-3.95 685.7-1.68 682.88 0.6 678.48 0.6ZM678.48-21.85L678.48-21.85Q675.48-21.85 673.15-20.03 670.83-18.2 670.48-14.7L670.48-14.7 686.08-14.7Q685.93-18.05 683.78-19.95 681.63-21.85 678.48-21.85ZM708.53 0L704.73 0Q701.33 0 699.38-1.65 697.43-3.3 697.43-7.6L697.43-7.6 697.43-21.25 693.13-21.25 693.13-24.8 697.43-24.8 697.98-30.75 701.63-30.75 701.63-24.8 708.93-24.8 708.93-21.25 701.63-21.25 701.63-7.6Q701.63-5.25 702.58-4.42 703.53-3.6 705.93-3.6L705.93-3.6 708.53-3.6 708.53 0ZM718.47 0L714.27 0 714.27-36 718.47-36 718.47-20.55Q719.72-22.85 722.02-24.13 724.32-25.4 727.02-25.4L727.02-25.4Q731.32-25.4 733.92-22.73 736.52-20.05 736.52-14.5L736.52-14.5 736.52 0 732.37 0 732.37-14.05Q732.37-21.8 726.12-21.8L726.12-21.8Q722.87-21.8 720.67-19.48 718.47-17.15 718.47-12.85L718.47-12.85 718.47 0ZM754.02 0.6L754.02 0.6Q750.47 0.6 747.72-1.03 744.97-2.65 743.4-5.55 741.82-8.45 741.82-12.4L741.82-12.4Q741.82-16.3 743.37-19.23 744.92-22.15 747.7-23.78 750.47-25.4 754.12-25.4L754.12-25.4Q757.72-25.4 760.35-23.78 762.97-22.15 764.37-19.5 765.77-16.85 765.77-13.8L765.77-13.8Q765.77-13.25 765.75-12.7 765.72-12.15 765.72-11.45L765.72-11.45 745.97-11.45Q746.12-8.6 747.3-6.73 748.47-4.85 750.25-3.9 752.02-2.95 754.02-2.95L754.02-2.95Q756.62-2.95 758.37-4.15 760.12-5.35 760.92-7.4L760.92-7.4 765.07-7.4Q764.07-3.95 761.25-1.68 758.42 0.6 754.02 0.6ZM754.02-21.85L754.02-21.85Q751.02-21.85 748.7-20.03 746.37-18.2 746.02-14.7L746.02-14.7 761.62-14.7Q761.47-18.05 759.32-19.95 757.17-21.85 754.02-21.85ZM775.52 0L771.32 0 771.32-24.8 775.12-24.8 775.47-20.05Q776.62-22.5 778.97-23.95 781.32-25.4 784.77-25.4L784.77-25.4 784.77-21 783.62-21Q781.42-21 779.57-20.23 777.72-19.45 776.62-17.6 775.52-15.75 775.52-12.5L775.52-12.5 775.52 0Z" opacity="1" transform="matrix(1,0,0,1,0,0)" fill="#000000" class="undefined-text-1" data-fill-palette-color="secondary" id="text-1"></path></svg></g></svg></g></svg></g></svg></g></svg></g><defs></defs></svg><rect width="395.5199999999999" height="78.23353571003172" fill="none" stroke="none" visibility="hidden"></rect></g></svg></g></svg>